<?xml version="1.0" encoding="UTF-8"?>
<svg id="Camada_2" xmlns="http://www.w3.org/2000/svg" viewBox="0 0 1080 240.9999526">
    <defs>
        <style>.cls-1{fill:#fff;}</style>
    </defs>
    <g id="horizontal">
        <g id="icon">
            <path id="blue_arch" class="cls-1"
                  d="M200.5810463,31.613953l-20.7220795,20.7220795c19.1028233,16.6620241,31.1757257,41.1796564,31.1757257,68.518935,0,50.1970651-40.6927032,90.8897683-90.8897683,90.8897683-50.1970041,0-90.8897683-40.6927032-90.8897683-90.8897683,0-27.3392787,12.0729634-51.8569109,31.1757866-68.518935l-20.7220795-20.7220795C15.3281748,53.6031467,0,85.4376304,0,120.8549676c0,66.3542182,53.7907059,120.1449851,120.1449241,120.1449851s120.1449241-53.7907669,120.1449241-120.1449851c0-35.4172763-15.3281139-67.2518209-39.708802-89.2410146Z"/>
            <g id="green_leafs">
                <path class="cls-1"
                      d="M46.2108154,120.8549805c0,37.3123779,27.6450806,68.1524658,63.5669556,73.1957397v-92.3678589l-37.3140259-37.3140869c-16.0501709,13.5621948-26.2529297,33.828064-26.2529297,56.4862061ZM167.8261719,64.3688355l-37.1721191,37.1721191v92.4916382c35.8529663-5.104248,63.4250488-35.9142456,63.4250488-73.1776123,0-22.6581421-10.2028198-42.9239502-26.2529297-56.486145Z"/>
            </g>
            <circle id="red_circle" class="cls-1" cx="120.1449241" cy="37.4920353" r="37.492037"/>
        </g>
        <g id="text">
            <g id="wikimedia">
                <path id="w" class="cls-1"
                      d="M325.04676,100.40481l16.8998102-54.8178977h22.1543714l16.7577862,54.8178977,18.8880155-54.8178977h23.0064934l-33.2315679,95.2922538h-15.7637053l-20.8762642-66.321139-20.7342402,66.321139h-15.7637053l-33.2315679-95.2922538h23.0064718l18.8881022,54.8178977Z"/>
                <path id="i1" class="cls-1" d="M434.2565268,45.5869069h21.3022927v95.2922484h-21.3022927V45.5869069Z"/>
                <path id="k" class="cls-1"
                      d="M478.9913415,45.5869069h21.3022927v39.1962218l35.9298497-39.1962164h26.2728277l-37.9180983,42.1785352c3.2663342,4.5444848,9.3730175,13.0654019,18.1779391,25.4207381,8.804965,12.3553254,15.3376334,21.5863189,19.7401159,27.6929805h-24.8526748l-27.9770284-37.6340504-9.5150414,10.6511463v26.9829041h-21.3022927V45.5869069h.1421106Z"/>
                <path id="i2" class="cls-1" d="M575.703759,45.5869069h21.3022927v95.2922484h-21.3022927V45.5869069Z"/>
                <path id="m" class="cls-1"
                      d="M705.789725,80.9487095l-25.7047752,52.1196051h-12.6393517l-25.5627512-52.1196051v59.9304458h-21.3022927V45.5869069h28.8290854l24.5686269,52.4036368,24.7106509-52.4036422h28.6870615v95.2922538h-21.3022927v-59.9304458h-.2839612Z"/>
                <path id="e" class="cls-1"
                      d="M819.2599721,45.5869069v18.8880318h-47.4331397v19.7401267h42.6045854v18.1779608h-42.6045854v19.7401267h48.9952732v18.7460132h-70.1555853V45.5869069h68.5934518Z"/>
                <path id="d" class="cls-1"
                      d="M912.4219641,58.0842509c9.0890129,8.378904,13.6334327,19.8821398,13.6334327,34.6517316s-4.4024392,26.5568539-13.3494714,35.2197949c-8.804965,8.6629302-22.4383976,12.9233887-40.6163367,12.9233887h-32.5215348V45.5869069h33.6576398c17.1839014,0,30.1073444,4.2604585,39.1962706,12.497344ZM896.9423501,114.7483516c5.2545829-4.970535,7.8108407-12.0712992,7.8108407-21.4443058s-2.5562578-16.6157894-7.8108407-21.5863243c-5.2545829-5.1125481-13.2074041-7.526809-24.0006178-7.526809h-11.9293186v57.9422296h13.491452c9.6571087,0,17.1839014-2.4142555,22.4384843-7.3847905Z"/>
                <path id="i3" class="cls-1" d="M944.5174705,45.5869069h21.3022927v95.2922484h-21.3022927V45.5869069Z"/>
                <path id="a" class="cls-1"
                      d="M1057.1355738,140.8791661l-8.804965-20.5922163h-39.9062603l-8.804965,20.5922163h-22.5804649l41.1844325-95.2922538h20.5922163l41.1844325,95.2922538h-22.8644262ZM1028.3064884,73.9899638l-11.9293186,27.6929859h23.8585505l-11.9292319-27.6929859Z"/>
            </g>
            <g id="brasil">
                <path id="b" class="cls-1"
                      d="M521.1318001,208.1726392c0,7.1895976-5.6313477,11.3826357-16.4152565,11.3826357h-20.8481754v-41.9362316h19.6507217c10.0642665,0,15.4557334,4.2534958,15.4557334,10.9038493,0,4.3129785-2.1560017,7.4879859-5.3914669,9.2256589,4.4933766,1.4373344,7.5484437,4.9721631,7.5484437,10.4240877ZM491.6566926,183.7301526v11.5620587h11.0237897c5.3914669,0,8.4465339-1.917096,8.4465339-5.751288,0-3.8936747-3.055067-5.8107707-8.4465339-5.8107707h-11.0237897ZM513.283993,207.3935143c0-4.1930381-3.1750074-6.0506515-9.0462359-6.0506515h-12.5810645v12.1022781h12.5810645c5.8712284,0,9.0462359-1.8576134,9.0462359-6.0516266Z"/>
                <path id="r" class="cls-1"
                      d="M592.8464031,219.5552749l-8.5674494-12.280726c-.5392442.0594826-1.0784884.0594826-1.6177326.0594826h-9.4655397v12.2212433h-7.7883245v-41.9362316h17.2538641c11.0237897,0,17.8535661,5.6313477,17.8535661,14.9174643,0,6.3500149-3.2354652,11.0228145-8.9272706,13.2402491l9.6459378,13.7785182h-8.3870513ZM582.3013998,184.208939h-9.1057185v16.7146199h9.1057185c6.8297764,0,10.3646051-3.1155248,10.3646051-8.3870513,0-5.2725016-3.5348286-8.3275687-10.3646051-8.3275687Z"/>
                <path id="a-2" class="cls-1"
                      d="M672.3483553,209.8498545h-20.9681158l-4.1345306,9.7054205h-8.0272301l18.8715967-41.9362316h7.6683841l18.9310794,41.9362316h-8.1481456l-4.1930381-9.7054205ZM669.7720747,203.7397204l-7.9082648-18.3323525-7.8478071,18.3323525h15.7560719Z"/>
                <path id="s" class="cls-1"
                      d="M722.4346828,215.1223561l2.696221-6.0506515c3.3554056,2.6952459,8.6864147,4.6123419,13.8389759,4.6123419,6.530413,0,9.2861167-2.3363998,9.2861167-5.4509495,0-9.047211-24.9222482-3.1155248-24.9222482-18.6921737,0-6.7693187,5.3914669-12.5206067,16.894043-12.5206067,5.0326208,0,10.3041473,1.3173941,13.9589163,3.7142516l-2.4563402,6.0506515c-3.7737343-2.2164594-7.9072897-3.2949478-11.5620587-3.2949478-6.4699553,0-9.1066936,2.5158228-9.1066936,5.6908303,0,8.9272706,24.8627656,3.1155248,24.8627656,18.5127507,0,6.7098361-5.4519246,12.4611241-16.9545007,12.4611241-6.530413,0-13.0598509-2.0370364-16.5351969-5.0326208Z"/>
                <path id="i" class="cls-1" d="M799.6012103,177.6190434h7.7883245v41.9362316h-7.7883245v-41.9362316Z"/>
                <path id="l" class="cls-1"
                      d="M854.6587257,177.6190434h7.7883245v35.3463359h21.9266638v6.5898957h-29.7149882v-41.9362316Z"/>
            </g>
        </g>
    </g>
</svg>